<svg width="22" height="18" viewBox="0 0 22 18" fill="none" xmlns="http://www.w3.org/2000/svg">
<path d="M21.2188 2.34375C21.3594 2.34375 21.5 2.25 21.5 2.0625V0.9375C21.5 0.796875 21.3594 0.65625 21.2188 0.65625H0.78125C0.59375 0.65625 0.5 0.796875 0.5 0.9375V2.0625C0.5 2.25 0.59375 2.34375 0.78125 2.34375H21.2188ZM21.2188 9.84375C21.3594 9.84375 21.5 9.75 21.5 9.5625V8.4375C21.5 8.29688 21.3594 8.15625 21.2188 8.15625H0.78125C0.59375 8.15625 0.5 8.29688 0.5 8.4375V9.5625C0.5 9.75 0.59375 9.84375 0.78125 9.84375H21.2188ZM21.2188 17.3438C21.3594 17.3438 21.5 17.25 21.5 17.0625V15.9375C21.5 15.7969 21.3594 15.6562 21.2188 15.6562H0.78125C0.59375 15.6562 0.5 15.7969 0.5 15.9375V17.0625C0.5 17.25 0.59375 17.3438 0.78125 17.3438H21.2188Z" fill="#4BB45E"/>
</svg>
