<svg width="16" height="16" viewBox="0 0 16 16" fill="none" xmlns="http://www.w3.org/2000/svg">
<path d="M15.2676 1.10742L12.3379 0.404297C11.8984 0.316406 11.459 0.521484 11.2832 0.931641L9.90625 4.125C9.75977 4.50586 9.84766 4.94531 10.1699 5.17969L11.752 6.46875C10.7559 8.51953 9.11523 10.1602 7.06445 11.1562L5.77539 9.57422C5.54102 9.25195 5.10156 9.16406 4.7207 9.31055L1.52734 10.6875C1.14648 10.8633 0.912109 11.3027 1 11.7129L1.70312 14.6719C1.79102 15.082 2.14258 15.375 2.58203 15.375C9.96484 15.375 16 9.39844 16 1.98633C16 1.54688 15.707 1.19531 15.2676 1.10742ZM2.61133 14.4375L1.9375 11.5371L5.07227 10.1895L6.83008 12.3281C9.84766 10.8926 11.4883 9.25195 12.9238 6.23438L10.7852 4.47656L12.1328 1.3418L15.0332 2.01562C15.0332 8.87109 9.4668 14.4375 2.61133 14.4375Z" fill="white"/>
</svg>
