<svg width="16" height="13" viewBox="0 0 16 13" fill="none" xmlns="http://www.w3.org/2000/svg">
<path d="M13 12.5C14.6562 12.5 16 11.1562 16 9.5V3.5C16 1.84375 14.6562 0.5 13 0.5H10.375C10.1562 0.5 10 0.6875 10 0.875V1.625C10 1.84375 10.1562 2 10.375 2H13C13.8125 2 14.5 2.6875 14.5 3.5V9.5C14.5 10.3438 13.8125 11 13 11H10.375C10.1562 11 10 11.1875 10 11.375V12.125C10 12.3438 10.1562 12.5 10.375 12.5H13ZM5.21875 1.125L4.59375 1.75C4.4375 1.875 4.4375 2.125 4.59375 2.28125L8.125 5.6875H0.375C0.15625 5.6875 0 5.875 0 6.0625V6.9375C0 7.15625 0.15625 7.3125 0.375 7.3125H8.125L4.59375 10.75C4.4375 10.9062 4.4375 11.1562 4.59375 11.2812L5.21875 11.9062C5.34375 12.0625 5.59375 12.0625 5.75 11.9062L10.875 6.78125C11.0312 6.625 11.0312 6.40625 10.875 6.25L5.75 1.125C5.59375 0.96875 5.34375 0.96875 5.21875 1.125Z" fill="#444444"/>
</svg>
