<svg width="30" height="27" viewBox="0 0 30 27" fill="none" xmlns="http://www.w3.org/2000/svg">
<path d="M27.1875 13.75H22.5V10C22.5 7.94922 24.1406 6.25 26.25 6.25H26.7188C27.4805 6.25 28.125 5.66406 28.125 4.84375V2.03125C28.125 1.26953 27.4805 0.625 26.7188 0.625H26.25C21.0352 0.625 16.875 4.84375 16.875 10V24.0625C16.875 25.6445 18.1055 26.875 19.6875 26.875H27.1875C28.7109 26.875 30 25.6445 30 24.0625V16.5625C30 15.0391 28.7109 13.75 27.1875 13.75ZM10.3125 13.75H5.625V10C5.625 7.94922 7.26562 6.25 9.375 6.25H9.84375C10.6055 6.25 11.25 5.66406 11.25 4.84375V2.03125C11.25 1.26953 10.6055 0.625 9.84375 0.625H9.375C4.16016 0.625 0 4.84375 0 10V24.0625C0 25.6445 1.23047 26.875 2.8125 26.875H10.3125C11.8359 26.875 13.125 25.6445 13.125 24.0625V16.5625C13.125 15.0391 11.8359 13.75 10.3125 13.75Z" fill="#FDF481"/>
</svg>
