<svg width="13" height="16" viewBox="0 0 13 16" fill="none" xmlns="http://www.w3.org/2000/svg">
<path d="M3.8418 11.0098C3.57812 10.7461 3.69531 10.834 3.10938 10.6582C2.81641 10.5996 2.58203 10.4531 2.34766 10.2773L1.0293 13.5293C0.882812 13.8516 1.14648 14.2031 1.46875 14.1738L3.02148 14.1152L4.07617 15.2285C4.31055 15.4922 4.7207 15.4043 4.83789 15.1113L6.39062 11.3613C6.06836 11.5371 5.7168 11.625 5.33594 11.625C4.7793 11.625 4.22266 11.4199 3.8418 11.0098ZM12.1914 13.5293L10.873 10.2773C10.6387 10.4531 10.4043 10.5996 10.1406 10.6582C9.49609 10.834 9.64258 10.7461 9.37891 11.0098C8.99805 11.4199 8.44141 11.625 7.88477 11.625C7.50391 11.625 7.15234 11.5371 6.83008 11.3613L8.38281 15.1113C8.5 15.4043 8.91016 15.4922 9.14453 15.2285L10.1992 14.1152L11.752 14.1738C12.0742 14.2031 12.3379 13.8516 12.1914 13.5293ZM8.70508 10.3359C9.14453 9.89648 9.20312 9.92578 9.81836 9.75C10.2285 9.66211 10.5508 9.33984 10.668 8.90039C10.873 8.08008 10.8145 8.16797 11.4297 7.58203C11.7227 7.25977 11.8398 6.82031 11.7227 6.41016C11.5176 5.58984 11.5176 5.70703 11.7227 4.85742C11.8398 4.44727 11.7227 4.00781 11.4297 3.71484C10.8145 3.09961 10.873 3.1875 10.668 2.36719C10.5508 1.95703 10.2285 1.63477 9.81836 1.51758C8.99805 1.2832 9.11523 1.3418 8.5 0.726562C8.20703 0.433594 7.76758 0.316406 7.35742 0.433594C6.56641 0.638672 6.6543 0.638672 5.86328 0.433594C5.45312 0.316406 5.01367 0.433594 4.7207 0.726562C4.10547 1.3418 4.22266 1.2832 3.40234 1.51758C2.99219 1.63477 2.66992 1.95703 2.55273 2.36719C2.34766 3.1875 2.40625 3.09961 1.79102 3.71484C1.49805 4.00781 1.38086 4.44727 1.49805 4.85742C1.70312 5.70703 1.70312 5.58984 1.49805 6.41016C1.38086 6.82031 1.49805 7.25977 1.79102 7.58203C2.40625 8.16797 2.34766 8.08008 2.55273 8.90039C2.66992 9.33984 2.99219 9.66211 3.40234 9.75C4.04688 9.92578 4.10547 9.89648 4.54492 10.3359C4.92578 10.7461 5.51172 10.8047 5.98047 10.5117C6.15625 10.3945 6.39062 10.3359 6.5957 10.3359C6.83008 10.3359 7.06445 10.3945 7.24023 10.5117C7.70898 10.8047 8.29492 10.7461 8.70508 10.3359ZM3.8418 5.53125C3.8418 3.97852 5.07227 2.71875 6.625 2.71875C8.14844 2.71875 9.37891 3.97852 9.37891 5.53125C9.37891 7.08398 8.14844 8.34375 6.625 8.34375C5.07227 8.34375 3.8418 7.08398 3.8418 5.53125Z" fill="white"/>
</svg>
