<svg width="11" height="16" viewBox="0 0 11 16" fill="none" xmlns="http://www.w3.org/2000/svg">
<path d="M6.50586 1.04883C6.27148 0.199219 5.04102 0.140625 4.77734 1.04883C3.42969 5.64844 0.5 6.9082 0.5 10.1602C0.5 13.0605 2.78516 15.375 5.65625 15.375C8.49805 15.375 10.8125 13.0605 10.8125 10.1602C10.8125 6.9082 7.88281 5.67773 6.50586 1.04883ZM5.65625 13.5C3.83984 13.5 2.375 12.0352 2.375 10.2188C2.375 9.98438 2.58008 9.75 2.84375 9.75C3.07812 9.75 3.3125 9.98438 3.3125 10.2188C3.3125 11.5371 4.33789 12.5625 5.65625 12.5625C5.89062 12.5625 6.125 12.7969 6.125 13.0312C6.125 13.2949 5.89062 13.5 5.65625 13.5Z" fill="white"/>
</svg>
