<svg width="0" height="0" class="hidden">
    <symbol fill="none" xmlns="http://www.w3.org/2000/svg" viewBox="0 0 16 10" id="arrow-down">
        <path d="M15.7.98l-.247-.246a.405.405 0 00-.598 0L8 7.59 1.11.734a.405.405 0 00-.598 0L.266.98a.405.405 0 000 .598l7.418 7.418a.405.405 0 00.597 0L15.7 1.578a.405.405 0 000-.598z"
              fill="#4BB45E"></path>
    </symbol>
    <symbol fill="none" xmlns="http://www.w3.org/2000/svg" viewBox="0 0 7 10" id="arrow-right">
        <path d="M6.086 5.566a.437.437 0 00.035-.597L1.973.89c-.176-.176-.457-.176-.598 0l-.246.246a.405.405 0 000 .597L4.715 5.25 1.129 8.8a.405.405 0 000 .598l.246.247c.14.175.422.175.598 0l4.113-4.079z"
              fill="#407014"></path>
    </symbol>
    <symbol fill="none" xmlns="http://www.w3.org/2000/svg" viewBox="0 0 32 29" id="cart">
        <path d="M30.383 4H7.305l-.492-2.406C6.702.992 6.155.5 5.554.5H.906a.665.665 0 00-.656.656v.438c0 .383.273.656.656.656h4.266L9 22.648A3.674 3.674 0 008.125 25c0 1.969 1.531 3.5 3.5 3.5a3.49 3.49 0 003.5-3.5c0-.602-.219-1.203-.492-1.75h7.93a3.947 3.947 0 00-.438 1.75c0 1.969 1.531 3.5 3.5 3.5a3.49 3.49 0 003.5-3.5c0-.93-.438-1.86-1.094-2.46a1.287 1.287 0 00-1.258-1.04H10.586L9.93 18h18.1c.657 0 1.149-.383 1.313-1.04l2.351-11.374A1.315 1.315 0 0030.383 4zM13.375 25c0 .984-.82 1.75-1.75 1.75-.984 0-1.75-.766-1.75-1.75 0-.93.766-1.75 1.75-1.75.93 0 1.75.82 1.75 1.75zm12.25 1.75c-.984 0-1.75-.766-1.75-1.75 0-.93.766-1.75 1.75-1.75.93 0 1.75.82 1.75 1.75 0 .984-.82 1.75-1.75 1.75zm2.078-10.5H9.602l-1.97-10.5h22.259l-2.188 10.5z"
              fill="#4BB45E"></path>
    </symbol>
    <symbol fill="none" xmlns="http://www.w3.org/2000/svg" viewBox="0 0 16 16" id="clock">
        <path d="M8 .25A7.749 7.749 0 00.25 8 7.749 7.749 0 008 15.75 7.749 7.749 0 0015.75 8 7.749 7.749 0 008 .25zm0 14A6.228 6.228 0 011.75 8 6.248 6.248 0 018 1.75c3.438 0 6.25 2.813 6.25 6.25A6.248 6.248 0 018 14.25zM9.906 11c.188.125.406.094.531-.094l.594-.781c.125-.188.094-.406-.094-.531L8.876 8.063V3.625A.403.403 0 008.5 3.25h-1a.38.38 0 00-.375.375v5.156c0 .094.031.219.125.281L9.906 11z"
              fill="#4BB45E"></path>
    </symbol>
    <symbol fill="none" xmlns="http://www.w3.org/2000/svg" viewBox="0 0 29 25" id="heart">
        <path d="M26.266 1.945c-3.008-2.515-7.438-2.133-10.227.766L15 3.805 13.906 2.71C11.664.414 7.18-1.008 3.68 1.945.234 4.898.07 10.148 3.133 13.32l10.61 10.938c.327.328.765.492 1.202.492.492 0 .93-.164 1.258-.492l10.61-10.938c3.062-3.172 2.898-8.422-.547-11.375zm-.711 10.172L15 23.055 4.39 12.117c-2.077-2.187-2.515-6.289.438-8.805 3.008-2.57 6.508-.71 7.82.602L15 6.32l2.297-2.406c1.258-1.312 4.812-3.172 7.82-.602 2.953 2.516 2.516 6.618.438 8.805z"
              fill="#F55"></path>
    </symbol>
    <symbol fill="none" xmlns="http://www.w3.org/2000/svg" viewBox="0 0 14 16" id="login">
        <path d="M9.781 9.5C8.875 9.5 8.47 10 7 10c-1.5 0-1.906-.5-2.813-.5C1.876 9.5 0 11.406 0 13.719v.781c0 .844.656 1.5 1.5 1.5h11a1.5 1.5 0 001.5-1.5v-.781C14 11.406 12.094 9.5 9.781 9.5zm2.719 5h-11v-.781C1.5 12.219 2.688 11 4.188 11c.468 0 1.187.5 2.812.5 1.594 0 2.313-.5 2.781-.5a2.72 2.72 0 012.719 2.719v.781zM7 9c2.469 0 4.5-2 4.5-4.5C11.5 2.031 9.469 0 7 0 4.5 0 2.5 2.031 2.5 4.5 2.5 7 4.5 9 7 9zm0-7.5c1.625 0 3 1.375 3 3 0 1.656-1.375 3-3 3a3 3 0 01-3-3c0-1.625 1.344-3 3-3z"
              fill="#444"></path>
    </symbol>
    <symbol fill="none" xmlns="http://www.w3.org/2000/svg" viewBox="0 0 12 17" id="map">
        <path d="M6 0C2.656 0 0 2.719 0 6c0 2.25.719 2.938 4.719 9.313a1.49 1.49 0 002.531 0C11.25 8.936 12 8.25 12 6c0-3.313-2.719-6-6-6zm0 14.5C2 8.125 1.5 7.719 1.5 6c0-2.469 2-4.5 4.5-4.5 2.469 0 4.5 2.031 4.5 4.5 0 1.719-.5 2.063-4.5 8.5zM3.5 6c0 1.406 1.094 2.5 2.5 2.5 1.375 0 2.5-1.094 2.5-2.5 0-1.375-1.125-2.5-2.5-2.5A2.487 2.487 0 003.5 6z"
              fill="#4BB45E"></path>
    </symbol>
    <symbol fill="none" xmlns="http://www.w3.org/2000/svg" viewBox="0 0 15 14" id="new">
        <path d="M1.875 2.188H0A6.552 6.552 0 006.563 8.75v4.219c0 .263.205.469.468.469h.938a.482.482 0 00.468-.47V8.75c0-3.604-2.958-6.563-6.562-6.563zM13.125.312a6.536 6.536 0 00-5.742 3.399A7.504 7.504 0 019.11 6.846C12.421 6.523 15 3.71 15 .312h-1.875z"
              fill="#fff"></path>
    </symbol>
    <symbol fill="none" xmlns="http://www.w3.org/2000/svg" viewBox="0 0 16 16" id="phone">
        <path d="M15.268 1.107l-2.93-.703c-.44-.088-.879.117-1.055.528L9.906 4.125c-.146.38-.058.82.264 1.055l1.582 1.289a10.1 10.1 0 01-4.688 4.687L5.775 9.574c-.234-.322-.673-.41-1.054-.263l-3.194 1.377c-.38.175-.615.615-.527 1.025l.703 2.959c.088.41.44.703.879.703C9.965 15.375 16 9.398 16 1.986a.88.88 0 00-.732-.879zM2.61 14.437l-.674-2.9 3.135-1.348 1.758 2.14c3.018-1.436 4.658-3.077 6.094-6.095l-2.139-1.757 1.348-3.135 2.9.674c0 6.855-5.566 12.421-12.422 12.421z"
              fill="#fff"></path>
    </symbol>
    <symbol fill="none" xmlns="http://www.w3.org/2000/svg" viewBox="0 0 16 13" id="register">
        <path d="M13 12.5a3 3 0 003-3v-6a3 3 0 00-3-3h-2.625A.38.38 0 0010 .875v.75a.36.36 0 00.375.375H13c.813 0 1.5.688 1.5 1.5v6A1.5 1.5 0 0113 11h-2.625a.38.38 0 00-.375.375v.75a.36.36 0 00.375.375H13zM5.219 1.125l-.625.625c-.157.125-.157.375 0 .531l3.531 3.406H.375A.38.38 0 000 6.063v.875c0 .22.156.375.375.375h7.75L4.594 10.75c-.157.156-.157.406 0 .531l.625.625c.125.156.375.156.531 0l5.125-5.125a.36.36 0 000-.531L5.75 1.125c-.156-.156-.406-.156-.531 0z"
              fill="#444"></path>
    </symbol>
    <symbol fill="none" xmlns="http://www.w3.org/2000/svg" viewBox="0 0 30 27" id="review">
        <path d="M27.188 13.75H22.5V10c0-2.05 1.64-3.75 3.75-3.75h.469c.761 0 1.406-.586 1.406-1.406V2.03c0-.761-.645-1.406-1.406-1.406h-.469c-5.215 0-9.375 4.219-9.375 9.375v14.063a2.777 2.777 0 002.813 2.812h7.5A2.813 2.813 0 0030 24.062v-7.5c0-1.523-1.29-2.812-2.813-2.812zm-16.875 0H5.625V10c0-2.05 1.64-3.75 3.75-3.75h.469c.761 0 1.406-.586 1.406-1.406V2.03c0-.761-.645-1.406-1.406-1.406h-.469C4.16.625 0 4.844 0 10v14.063a2.777 2.777 0 002.813 2.812h7.5a2.813 2.813 0 002.812-2.813v-7.5c0-1.523-1.29-2.812-2.813-2.812z"
              fill="#FDF481"></path>
    </symbol>
    <symbol fill="none" xmlns="http://www.w3.org/2000/svg" viewBox="0 0 13 16" id="sale">
        <path d="M3.842 11.01c-.264-.264-.147-.176-.733-.352-.293-.058-.527-.205-.761-.38l-1.319 3.251c-.146.323.117.674.44.645l1.552-.059 1.055 1.114a.455.455 0 00.762-.118l1.553-3.75a2.167 2.167 0 01-1.055.264c-.557 0-1.113-.205-1.494-.615zm8.35 2.52l-1.319-3.253c-.234.176-.469.323-.732.381-.645.176-.498.088-.762.352-.381.41-.938.615-1.494.615-.381 0-.733-.088-1.055-.264l1.553 3.75a.455.455 0 00.762.117l1.054-1.113 1.553.059c.322.03.586-.322.44-.645zm-3.487-3.194c.44-.44.498-.41 1.113-.586.41-.088.733-.41.85-.85.205-.82.147-.732.762-1.318.293-.322.41-.762.293-1.172-.205-.82-.205-.703 0-1.553.117-.41 0-.85-.293-1.142-.615-.615-.557-.527-.762-1.348a1.24 1.24 0 00-.85-.85c-.82-.234-.703-.175-1.318-.79A1.168 1.168 0 007.357.434c-.79.205-.703.205-1.494 0-.41-.118-.85 0-1.142.293-.616.615-.498.556-1.319.79a1.24 1.24 0 00-.85.85c-.204.82-.146.733-.761 1.348-.293.293-.41.732-.293 1.142.205.85.205.733 0 1.553-.117.41 0 .85.293 1.172.615.586.557.498.762 1.318.117.44.44.762.85.85.644.176.702.146 1.142.586.38.41.967.469 1.435.176.176-.117.41-.176.616-.176.234 0 .468.059.644.176a1.161 1.161 0 001.465-.176zM3.842 5.53c0-1.552 1.23-2.812 2.783-2.812 1.523 0 2.754 1.26 2.754 2.812 0 1.553-1.23 2.813-2.754 2.813-1.553 0-2.783-1.26-2.783-2.813z"
              fill="#fff"></path>
    </symbol>
    <symbol fill="none" xmlns="http://www.w3.org/2000/svg" viewBox="0 0 16 15" id="star">
        <path d="M7.082 1.242L5.305 4.88l-4.02.574c-.71.11-.984.984-.465 1.504l2.871 2.816-.683 3.965c-.11.711.656 1.258 1.285.93l3.582-1.887 3.555 1.887c.629.328 1.394-.219 1.285-.93l-.684-3.965 2.871-2.816c.52-.52.246-1.394-.464-1.504l-3.993-.574-1.804-3.637c-.301-.629-1.23-.656-1.559 0z"
              fill="#F55"></path>
    </symbol>
    <symbol fill="none" xmlns="http://www.w3.org/2000/svg" viewBox="0 0 11 16" id="water">
        <path d="M6.506 1.049c-.235-.85-1.465-.908-1.729 0C3.43 5.649.5 6.909.5 10.16c0 2.9 2.285 5.215 5.156 5.215 2.842 0 5.157-2.315 5.157-5.215 0-3.252-2.93-4.482-4.307-9.111zM5.656 13.5a3.276 3.276 0 01-3.281-3.281c0-.235.205-.469.469-.469.234 0 .469.234.469.469a2.314 2.314 0 002.343 2.344c.235 0 .469.234.469.468a.482.482 0 01-.469.469z"
              fill="#fff"></path>
    </symbol>
    <symbol fill="none" xmlns="http://www.w3.org/2000/svg" viewBox="0 0 22 18" id="burger">
        <path d="M21.219 2.344c.14 0 .281-.094.281-.281V.937c0-.14-.14-.28-.281-.28H.78C.594.656.5.796.5.936v1.125c0 .188.094.282.281.282H21.22zm0 7.5c.14 0 .281-.094.281-.281V8.437c0-.14-.14-.28-.281-.28H.78c-.187 0-.281.14-.281.28v1.126c0 .187.094.28.281.28h20.44zm0 7.5c.14 0 .281-.094.281-.282v-1.125c0-.14-.14-.28-.281-.28H.78c-.187 0-.281.14-.281.28v1.126c0 .187.094.28.281.28h20.44z"
              fill="#4BB45E"></path>
    </symbol>
</svg>